<svg xmlns="http://www.w3.org/2000/svg" version="1.0" width="163.000000pt" height="163.000000pt" viewBox="0 0 163.000000 163.000000" preserveAspectRatio="xMidYMid meet">

<g transform="translate(0.000000,163.000000) scale(0.100000,-0.100000)" fill="#000000" stroke="none">
<path d="M715 1408 c-31 -69 -56 -126 -105 -233 -38 -81 -117 -258 -149 -330 -13 -27 -26 -57 -31 -66 -5 -9 -63 -137 -130 -285 -68 -148 -131 -288 -142 -312 -12 -23 -18 -46 -14 -49 4 -4 49 -7 101 -8 l94 0 37 80 c20 44 47 103 60 130 26 57 330 724 377 828 16 37 34 67 38 67 4 0 11 -10 14 -21 4 -12 24 -58 45 -103 38 -81 126 -274 181 -396 16 -36 83 -182 147 -324 l118 -259 100 -1 c82 0 99 2 96 14 -1 8 -136 311 -300 672 l-297 657 -106 1 -106 0 -28 -62z"/>
<path d="M789 483 c-30 -37 -59 -75 -66 -83 -7 -8 -57 -72 -113 -141 -55 -70 -100 -128 -100 -130 0 -2 153 -4 339 -4 225 0 337 3 333 10 -14 23 -325 410 -331 413 -4 1 -32 -28 -62 -65z"/>
</g>
</svg>