<svg width="200" height="84" viewBox="0 0 200 84" fill="none" xmlns="http://www.w3.org/2000/svg">
<g clip-path="url(#clip0_248_1509)">
<path d="M195.357 39.501V73.3368H200.004V39.501H195.357Z" fill="white"/>
<path d="M190.335 60.7726C190.303 58.8806 189.816 57.0243 188.913 55.3625C188.011 53.7008 186.721 52.2829 185.153 51.2301C183.331 50.0413 181.224 49.3676 179.053 49.2803C178.9 49.2803 178.744 49.2691 178.588 49.2691C178.532 49.2691 178.474 49.2691 178.419 49.2691H178.369C175.853 49.2527 173.394 50.0115 171.322 51.4426C169.769 52.5435 168.508 54.0084 167.648 55.7099C166.788 57.4114 166.356 59.2979 166.389 61.2051C166.379 62.9837 166.728 64.7459 167.415 66.3855C167.946 67.6495 168.702 68.806 169.646 69.7987C169.854 70.0131 170.062 70.2163 170.281 70.4046C170.838 70.9114 171.448 71.3558 172.101 71.73C174.013 72.8081 176.176 73.3575 178.369 73.3219H178.393C178.612 73.3219 178.826 73.3219 179.036 73.307C180.663 73.2516 182.265 72.878 183.749 72.2072C184.44 71.8891 185.096 71.4999 185.707 71.0458V74.377C185.707 78.534 183.495 79.6432 180.564 79.6432H173.38V83.9643H180.787C186.534 83.9643 190.35 81.1382 190.35 74.2708V60.754L190.335 60.7726ZM178.426 69.4968C177.351 69.5113 176.285 69.3007 175.296 68.8784C174.307 68.4562 173.416 67.8315 172.682 67.0445C171.947 66.2574 171.384 65.3252 171.029 64.3075C170.674 63.2898 170.535 62.209 170.62 61.1343C170.561 60.0962 170.715 59.057 171.072 58.0809C171.429 57.1047 171.981 56.2122 172.695 55.4582C173.409 54.7043 174.27 54.105 175.223 53.6971C176.177 53.2893 177.204 53.0816 178.24 53.0868C179.303 53.0739 180.358 53.2797 181.338 53.6915C182.319 54.1033 183.205 54.7123 183.942 55.4809C184.679 56.2496 185.25 57.1615 185.622 58.1605C185.994 59.1594 186.157 60.2242 186.103 61.289C186.112 65.3714 183.733 69.4968 178.426 69.4968Z" fill="white"/>
<path d="M158.33 51.2487C156.509 50.0589 154.401 49.3851 152.23 49.2988C152.077 49.2988 151.921 49.2877 151.765 49.2877C151.711 49.2877 151.652 49.2877 151.598 49.2877H151.548C149.032 49.2712 146.572 50.0299 144.5 51.4612C142.946 52.5617 141.685 54.0262 140.825 55.7274C139.965 57.4286 139.533 59.3148 139.567 61.2218C139.557 63.0003 139.906 64.7624 140.593 66.4022C140.989 67.3364 141.508 68.2139 142.134 69.012H114.106C112.283 69.012 111.454 68.2906 111.454 66.076V39.501H106.28V66.3444C106.28 71.2229 108.103 73.3293 112.744 73.3293H151.57C151.789 73.3293 152.003 73.3293 152.215 73.3144C153.843 73.2599 155.444 72.8869 156.929 72.2165C158.226 71.6245 159.393 70.782 160.365 69.7372C162.455 67.4087 163.585 64.3708 163.525 61.2386C163.562 59.2704 163.106 57.3243 162.198 55.5789C161.291 53.8335 159.961 52.3445 158.33 51.2487ZM151.604 69.1089C150.529 69.1238 149.462 68.9134 148.473 68.4912C147.484 68.069 146.593 67.4444 145.858 66.6573C145.123 65.8702 144.561 64.9379 144.206 63.9201C143.851 62.9022 143.712 61.8213 143.797 60.7465C143.738 59.7083 143.892 58.6691 144.249 57.6928C144.606 56.7165 145.158 55.8238 145.872 55.0699C146.586 54.3159 147.446 53.7165 148.4 53.3088C149.354 52.901 150.381 52.6935 151.418 52.699C152.481 52.6864 153.535 52.8924 154.515 53.3043C155.496 53.7162 156.381 54.3252 157.118 55.0938C157.854 55.8624 158.426 56.7743 158.798 57.7731C159.169 58.7719 159.333 59.8365 159.278 60.9012C159.289 64.9836 156.91 69.1089 151.604 69.1089Z" fill="white"/>
<path d="M100.202 53.3458C98.9981 52.7545 97.665 52.4781 96.3263 52.5423H74.0816L74.7191 51.1051C75.7079 48.8681 77.7172 44.3383 79.8435 39.5195H74.825L70.9478 48.0945L66.9554 56.8764H95.501C97.3263 56.8764 98.1534 57.596 98.1534 59.8106V66.0517C98.1534 68.2737 97.3244 68.9914 95.501 68.9914H44.5731V60.737L44.5601 60.765C44.5295 58.8732 44.0419 57.0169 43.139 55.3556C42.2361 53.6942 40.945 52.2773 39.3762 51.2263C37.5565 50.0351 35.4492 49.36 33.2779 49.2726C33.1236 49.2726 32.9675 49.2633 32.8132 49.2633C32.7575 49.2599 32.7016 49.2599 32.6459 49.2633H32.5939C30.0782 49.248 27.6185 50.008 25.5476 51.4406C23.9939 52.5406 22.7321 54.0051 21.8723 55.7064C21.0125 57.4077 20.5807 59.2941 20.6147 61.2012C20.6047 62.9796 20.9531 64.7416 21.6388 66.3816C22.1712 67.6454 22.9268 68.8023 23.8692 69.7967C24.0774 70.0092 24.2856 70.2124 24.5049 70.3988C25.0626 70.9058 25.6733 71.3508 26.3264 71.7261C28.2373 72.8044 30.3997 73.3538 32.592 73.3181H39.9301V74.3713C39.9301 78.5264 37.7164 79.6356 34.7853 79.6356H27.6145V83.9585H35.0213C40.7665 83.9585 44.5824 81.1306 44.5824 74.265V73.3218H96.3337C100.98 73.3218 102.798 71.2153 102.798 66.335V59.5272C102.791 56.3582 102.019 54.3561 100.202 53.3458ZM32.6552 69.4985C31.5802 69.5133 30.5139 69.3029 29.5246 68.8807C28.5353 68.4585 27.6448 67.8339 26.91 67.0468C26.1752 66.2597 25.6123 65.3274 25.2574 64.3096C24.9025 63.2917 24.7633 62.2108 24.8487 61.136C24.7898 60.0978 24.9436 59.0586 25.3004 58.0823C25.6573 57.106 26.2098 56.2133 26.9237 55.4594C27.6377 54.7054 28.4981 54.1061 29.4519 53.6983C30.4056 53.2906 31.4326 53.083 32.4693 53.0885C33.5324 53.0757 34.5869 53.2815 35.5676 53.6932C36.5484 54.105 37.4345 54.714 38.1714 55.4826C38.9084 56.2512 39.4804 57.1631 39.8523 58.1621C40.2241 59.161 40.3879 60.2258 40.3334 61.2907C40.339 65.3731 37.9599 69.4966 32.6552 69.4966V69.4985Z" fill="white"/>
<path d="M75.8604 52.5405L71.4423 56.8653L73.3586 52.5405H75.8604Z" fill="white"/>
<path d="M66.2844 56.8673L74.1541 39.5178H79.1726L71.4962 56.8673" fill="white"/>
<path d="M16.7894 3.63383e-05C14.5828 -0.0617607 12.3866 0.325626 10.3334 1.1388C8.28015 1.95198 6.41257 3.17407 4.8434 4.73129C3.27423 6.2885 2.03603 8.14852 1.20357 10.199C0.371107 12.2495 -0.0383453 14.448 -6.14796e-05 16.6616C-0.087649 21.097 1.54188 25.3939 4.54628 28.6498C6.12924 30.2665 8.02832 31.5375 10.1243 32.3831C12.2203 33.2287 14.468 33.6307 16.7262 33.5637C19.0115 33.6385 21.2868 33.2305 23.4047 32.3663C25.5225 31.5021 27.4355 30.201 29.0196 28.5473C31.9362 25.2997 33.5129 21.0615 33.4302 16.6915C33.48 14.486 33.0836 12.2933 32.265 10.2458C31.4464 8.19822 30.2225 6.33831 28.6672 4.77833C27.112 3.21835 25.2576 1.99067 23.2162 1.16941C21.1747 0.348151 18.9885 -0.0496466 16.7894 3.63383e-05ZM28.6664 16.7772C28.6664 23.0817 24.9992 29.4421 16.8043 29.4421C11.0071 29.4421 4.76746 25.4025 4.76746 16.5367C4.76746 10.3665 8.8101 4.12163 16.5348 4.12163C24.4993 4.12163 28.6664 10.4895 28.6664 16.7791V16.7772Z" fill="white"/>
<path d="M67.4479 0.315038C65.2175 5.42462 62.5187 11.5576 60.1321 16.9692C58.2567 21.2231 56.6006 24.9849 55.6397 27.1902C53.8516 22.7461 48.2551 9.70652 44.0898 0.31131L43.9523 0H37.8744V33.5637H42.3575V19.4802C42.3575 15.586 42.2906 10.3739 42.1141 6.39956C43.8278 10.6554 46.6622 17.3793 49.2291 23.4713C50.7569 27.0989 52.203 30.5233 53.3312 33.2412L53.465 33.5637H57.3014L58.5132 30.8271C62.5038 21.8234 66.9368 11.8242 69.1802 6.23365C69.1077 9.40267 69.1003 13.6361 69.1003 18.5872V33.5637H73.747V0H67.5855L67.4479 0.315038Z" fill="white"/>
<path d="M127.857 4.11419C130.019 3.9072 132.188 4.42612 134.024 5.58948C135.859 6.75285 137.258 8.49476 138 10.5417L138.136 10.8642H142.782L142.613 10.208C141.635 6.39588 138.424 5.59748e-05 127.903 5.59748e-05C125.696 -0.0546996 123.501 0.346345 121.454 1.17828C119.407 2.01022 117.553 3.25528 116.007 4.83613C114.46 6.41699 113.254 8.29988 112.463 10.3679C111.673 12.4358 111.315 14.6447 111.411 16.8574C111.411 26.8491 117.969 33.5618 127.727 33.5618C135.316 33.5618 140.143 30.3164 142.487 23.6391L142.732 22.94H138.119L137.976 23.2364C136.167 26.9647 133.762 29.4552 127.902 29.4552C121 29.4552 116.181 24.2244 116.181 16.7343C116.186 9.18649 120.872 4.11419 127.857 4.11419Z" fill="white"/>
<path d="M162.821 9.01776e-05C160.614 -0.0619725 158.418 0.325232 156.364 1.13831C154.311 1.9514 152.443 3.17348 150.874 4.73075C149.305 6.28801 148.067 8.14815 147.234 10.1988C146.402 12.2494 145.993 14.448 146.031 16.6617C145.943 21.0971 147.573 25.394 150.577 28.6499C153.873 31.8209 158.268 33.583 162.835 33.5639C167.402 33.5448 171.782 31.7459 175.051 28.5474C177.969 25.2998 179.547 21.0608 179.465 16.6896C179.515 14.484 179.118 12.2912 178.299 10.2436C177.48 8.19606 176.256 6.33619 174.7 4.77636C173.144 3.21653 171.29 1.9891 169.248 1.16818C167.206 0.347269 165.02 -0.0500947 162.821 9.01776e-05ZM162.566 4.12168C170.53 4.12168 174.698 10.4895 174.698 16.7791C174.698 23.0687 171.03 29.444 162.835 29.444C157.038 29.444 150.799 25.4044 150.799 16.5386C150.799 10.3665 154.845 4.12168 162.566 4.12168Z" fill="white"/>
<path d="M102.547 33.6718H85.5757L94.0625 22.9475L96.3746 25.8686L99.2965 29.5614L102.547 33.6718Z" fill="white"/>
<path d="M91.451 0L76.1521 33.6718H81.3564L96.5976 0H91.451Z" fill="white"/>
<path d="M91.4528 0L94.0382 5.67814L92.4416 9.21998L91.4528 0Z" fill="white"/>
<path d="M106.753 33.6754L91.4546 0.00366211H96.6589L111.9 33.6754H106.753Z" fill="white"/>
<path d="M96.3727 25.8667C90.4676 28.7151 88.3339 31.9755 87.5867 33.67H85.5737L94.0624 22.9475L96.3727 25.8667Z" fill="white" stroke="#707070" stroke-width="0.353519"/>
<path d="M96.3727 25.8667C90.4677 28.7132 88.3339 31.9736 87.5867 33.6699H90.2055C91.1836 32.7023 92.2961 31.8817 93.5084 31.2335C95.2895 30.2515 97.2658 29.6785 99.2945 29.5558L96.3727 25.8611V25.8667Z" fill="white" stroke="#707070" stroke-width="0.353519"/>
<path d="M99.2946 29.5615C97.2658 29.6842 95.2895 30.2573 93.5085 31.2392C92.2961 31.8874 91.1836 32.7081 90.2056 33.6757H102.547L99.2946 29.5746" fill="white"/>
<path d="M99.2946 29.5615C97.2658 29.6842 95.2895 30.2573 93.5085 31.2392C92.2961 31.8874 91.1836 32.7081 90.2056 33.6757H102.547L99.2946 29.5746" stroke="#707070" stroke-width="0.353519"/>
</g>
<defs>
<clipPath id="clip0_248_1509">
<rect width="200" height="83.9623" fill="white"/>
</clipPath>
</defs>
</svg>
