<svg  viewBox="0 0 24 24" fill="none" xmlns="http://www.w3.org/2000/svg">
                <path d="M8.6655 15.3346L11.8635 22.7956C11.9203 22.9283 12.0142 23.0418 12.1339 23.1225C12.2537 23.2031 12.3942 23.2474 12.5385 23.2501H12.5535C12.6954 23.25 12.8344 23.2096 12.9543 23.1337C13.0741 23.0577 13.17 22.9493 13.2308 22.8211L23.1773 1.82109C23.2439 1.68146 23.2657 1.52459 23.2396 1.37207C23.2134 1.21956 23.1407 1.07889 23.0313 0.96943C22.9219 0.859971 22.7813 0.787101 22.6288 0.76085C22.4763 0.734599 22.3194 0.756257 22.1798 0.822842L1.17975 10.7693C1.04921 10.8311 0.939251 10.9292 0.863093 11.0518C0.786936 11.1745 0.747815 11.3166 0.750428 11.461C0.753042 11.6053 0.797279 11.7459 0.877827 11.8657C0.958375 11.9856 1.07181 12.0796 1.2045 12.1366L8.6655 15.3346ZM20.9228 3.07734L12.5873 20.6761L9.9255 14.4683C9.84997 14.2912 9.70889 14.1501 9.53175 14.0746L3.324 11.4121L20.9228 3.07734Z" fill="#BF713E"></path>
                </svg>