<svg xmlns="http://www.w3.org/2000/svg"  viewBox="0 0 24 25" fill="none">
                <path d="M20.0328 20.4949H3.96777C3.1227 20.4939 2.31252 20.1577 1.71497 19.5602C1.11741 18.9626 0.781266 18.1525 0.780273 17.3074V7.69238C0.781266 6.84731 1.11741 6.03713 1.71497 5.43958C2.31252 4.84202 3.1227 4.50588 3.96777 4.50488H20.0328C20.8778 4.50588 21.688 4.84202 22.2856 5.43958C22.8831 6.03713 23.2193 6.84731 23.2203 7.69238V17.3074C23.2193 18.1525 22.8831 18.9626 22.2856 19.5602C21.688 20.1577 20.8778 20.4939 20.0328 20.4949ZM3.96777 5.62988C3.42076 5.62988 2.89616 5.84718 2.50937 6.23397C2.12257 6.62077 1.90527 7.14537 1.90527 7.69238V17.3074C1.90527 17.8544 2.12257 18.379 2.50937 18.7658C2.89616 19.1526 3.42076 19.3699 3.96777 19.3699H20.0328C20.5798 19.3699 21.1044 19.1526 21.4912 18.7658C21.878 18.379 22.0953 17.8544 22.0953 17.3074V7.69238C22.0953 7.14537 21.878 6.62077 21.4912 6.23397C21.1044 5.84718 20.5798 5.62988 20.0328 5.62988H3.96777Z" fill="#BF713E"/>
                <path d="M12.0004 14.7801C11.3065 14.7812 10.6311 14.556 10.0767 14.1388L1.32042 7.51633C1.25855 7.47291 1.20607 7.41747 1.16611 7.35331C1.12614 7.28916 1.09952 7.21761 1.08783 7.14293C1.07613 7.06826 1.07961 6.992 1.09805 6.9187C1.11648 6.8454 1.1495 6.77656 1.19514 6.71631C1.24077 6.65606 1.29807 6.60562 1.36363 6.568C1.42919 6.53039 1.50166 6.50638 1.57671 6.49739C1.65176 6.48841 1.72784 6.49465 1.80043 6.51573C1.87301 6.53681 1.9406 6.5723 1.99917 6.62008L10.7554 13.2501C11.115 13.5185 11.5517 13.6635 12.0004 13.6635C12.4491 13.6635 12.8858 13.5185 13.2454 13.2501L22.0017 6.62008C22.0602 6.5723 22.1278 6.53681 22.2004 6.51573C22.273 6.49465 22.3491 6.48841 22.4241 6.49739C22.4992 6.50638 22.5716 6.53039 22.6372 6.568C22.7028 6.60562 22.7601 6.65606 22.8057 6.71631C22.8513 6.77656 22.8843 6.8454 22.9028 6.9187C22.9212 6.992 22.9247 7.06826 22.913 7.14293C22.9013 7.21761 22.8747 7.28916 22.8347 7.35331C22.7948 7.41747 22.7423 7.47291 22.6804 7.51633L13.9242 14.1388C13.3697 14.556 12.6943 14.7812 12.0004 14.7801Z" fill="#BF713E"/>
                <path d="M1.56333 18.9275C1.44924 18.9277 1.3378 18.8931 1.2438 18.8285C1.14979 18.7639 1.07766 18.6722 1.03698 18.5656C0.996297 18.459 0.988986 18.3426 1.01602 18.2317C1.04305 18.1209 1.10314 18.0209 1.18833 17.945L8.08833 11.7912C8.19972 11.6918 8.34605 11.6407 8.49515 11.6491C8.64424 11.6575 8.78387 11.7249 8.88333 11.8362C8.98278 11.9476 9.03392 12.094 9.02548 12.2431C9.01704 12.3922 8.94972 12.5318 8.83833 12.6312L1.93833 18.785C1.83586 18.8782 1.70185 18.9291 1.56333 18.9275ZM22.4358 18.9275C22.2973 18.9291 22.1633 18.8782 22.0608 18.785L15.1608 12.6312C15.0494 12.5318 14.9821 12.3922 14.9737 12.2431C14.9652 12.094 15.0164 11.9476 15.1158 11.8362C15.2153 11.7249 15.3549 11.6575 15.504 11.6491C15.6531 11.6407 15.7994 11.6918 15.9108 11.7912L22.8071 17.945C22.8923 18.0209 22.9524 18.1209 22.9794 18.2317C23.0064 18.3426 22.9991 18.459 22.9584 18.5656C22.9177 18.6722 22.8456 18.7639 22.7516 18.8285C22.6576 18.8931 22.5462 18.9277 22.4321 18.9275H22.4358Z" fill="#BF713E"/>
                </svg>