<svg width="31" height="32" viewBox="0 0 31 32" fill="none" xmlns="http://www.w3.org/2000/svg">
<path d="M11.3543 28.7917V24.3194C11.3542 23.1818 12.2816 22.2575 13.4306 22.2499H17.6395C18.794 22.2499 19.7299 23.1764 19.7299 24.3194V28.8056C19.7296 29.7714 20.5083 30.5608 21.4836 30.5834H24.2895C27.0866 30.5834 29.3542 28.3386 29.3542 25.5694V12.8469C29.3392 11.7575 28.8226 10.7345 27.9512 10.0691L18.355 2.41615C16.6739 1.08362 14.284 1.08362 12.6029 2.41615L3.04878 10.083C2.17412 10.7457 1.6566 11.7704 1.64583 12.8608V25.5694C1.64583 28.3386 3.91335 30.5834 6.71049 30.5834H9.5164C10.5159 30.5834 11.3262 29.7812 11.3262 28.7917" stroke="#BF713E" stroke-width="1.5" stroke-linecap="round" stroke-linejoin="round"/>
</svg>
