<svg width="19" height="18" viewBox="0 0 19 18" fill="none" xmlns="http://www.w3.org/2000/svg">
<path fill-rule="evenodd" clip-rule="evenodd" d="M18.9715 17.9878L14.9604 17.9715L14.9857 11.7572C14.9923 10.1309 14.3699 9.01783 12.9898 9.01221C11.9348 9.00791 11.3448 9.75502 11.0688 10.476C10.9651 10.7346 10.9797 11.0957 10.9782 11.4567L10.9518 17.9552L6.97816 17.939C6.97816 17.939 7.07415 6.93137 7.02708 5.93065L11.0007 5.94684L10.993 7.83164C11.2315 7.00842 12.5058 5.83764 14.5318 5.84589C17.0457 5.85613 19.0139 7.5912 18.9987 11.3108L18.9715 17.9878ZM3.01507 4.4122L2.98909 4.4121C1.70884 4.40688 0.882304 3.48562 0.887045 2.32204C0.891877 1.13592 1.75015 0.240542 3.05639 0.245863C4.36139 0.25118 5.16036 1.1511 5.18069 2.336C5.17595 3.49958 4.34441 4.41762 3.01507 4.4122ZM1.33026 5.90745L4.86746 5.92186L4.81854 17.9302L1.28134 17.9158L1.33026 5.90745Z" fill="white"/>
</svg>
