<svg width="24" height="25" viewBox="0 0 24 25" fill="none" xmlns="http://www.w3.org/2000/svg">
<path d="M20.0325 20.495H3.96753C3.12246 20.494 2.31228 20.1579 1.71472 19.5603C1.11717 18.9628 0.781022 18.1526 0.780029 17.3075V7.6925C0.781022 6.84743 1.11717 6.03726 1.71472 5.4397C2.31228 4.84214 3.12246 4.506 3.96753 4.505H20.0325C20.8776 4.506 21.6878 4.84214 22.2853 5.4397C22.8829 6.03726 23.219 6.84743 23.22 7.6925V17.3075C23.219 18.1526 22.8829 18.9628 22.2853 19.5603C21.6878 20.1579 20.8776 20.494 20.0325 20.495ZM3.96753 5.63C3.42052 5.63 2.89592 5.8473 2.50912 6.2341C2.12233 6.62089 1.90503 7.1455 1.90503 7.6925V17.3075C1.90503 17.8545 2.12233 18.3791 2.50912 18.7659C2.89592 19.1527 3.42052 19.37 3.96753 19.37H20.0325C20.5795 19.37 21.1041 19.1527 21.4909 18.7659C21.8777 18.3791 22.095 17.8545 22.095 17.3075V7.6925C22.095 7.1455 21.8777 6.62089 21.4909 6.2341C21.1041 5.8473 20.5795 5.63 20.0325 5.63H3.96753Z" fill="white"/>
<path d="M12 14.78C11.3061 14.7811 10.6307 14.556 10.0762 14.1388L1.31999 7.51627C1.25812 7.47285 1.20564 7.41741 1.16568 7.35325C1.12572 7.2891 1.09909 7.21755 1.0874 7.14287C1.07571 7.0682 1.07918 6.99194 1.09762 6.91864C1.11606 6.84534 1.14908 6.7765 1.19471 6.71625C1.24034 6.656 1.29765 6.60556 1.36321 6.56794C1.42877 6.53033 1.50123 6.50632 1.57628 6.49733C1.65133 6.48835 1.72742 6.49459 1.8 6.51566C1.87259 6.53674 1.94018 6.57223 1.99874 6.62002L10.755 13.25C11.1146 13.5184 11.5513 13.6635 12 13.6635C12.4487 13.6635 12.8854 13.5184 13.245 13.25L22.0012 6.62002C22.0598 6.57223 22.1274 6.53674 22.2 6.51566C22.2726 6.49459 22.3486 6.48835 22.4237 6.49733C22.4987 6.50632 22.5712 6.53033 22.6368 6.56794C22.7023 6.60556 22.7596 6.656 22.8053 6.71625C22.8509 6.7765 22.8839 6.84534 22.9024 6.91864C22.9208 6.99194 22.9243 7.0682 22.9126 7.14287C22.9009 7.21755 22.8743 7.2891 22.8343 7.35325C22.7943 7.41741 22.7419 7.47285 22.68 7.51627L13.9237 14.1388C13.3693 14.556 12.6939 14.7811 12 14.78Z" fill="white"/>
<path d="M1.56375 18.9275C1.44967 18.9277 1.33823 18.8931 1.24422 18.8285C1.15022 18.7639 1.07809 18.6722 1.03741 18.5656C0.996724 18.459 0.989414 18.3426 1.01644 18.2317C1.04348 18.1209 1.10357 18.0209 1.18875 17.945L8.08875 11.7912C8.20014 11.6918 8.34648 11.6407 8.49557 11.6491C8.64466 11.6575 8.7843 11.7249 8.88375 11.8362C8.98321 11.9476 9.03434 12.094 9.0259 12.2431C9.01746 12.3922 8.95014 12.5318 8.83875 12.6312L1.93875 18.785C1.83628 18.8782 1.70228 18.9291 1.56375 18.9275ZM22.4363 18.9275C22.2977 18.9291 22.1637 18.8782 22.0613 18.785L15.1613 12.6312C15.0499 12.5318 14.9825 12.3922 14.9741 12.2431C14.9657 12.094 15.0168 11.9476 15.1163 11.8362C15.2157 11.7249 15.3553 11.6575 15.5044 11.6491C15.6535 11.6407 15.7999 11.6918 15.9113 11.7912L22.8075 17.945C22.8927 18.0209 22.9528 18.1209 22.9798 18.2317C23.0068 18.3426 22.9995 18.459 22.9589 18.5656C22.9182 18.6722 22.846 18.7639 22.752 18.8285C22.658 18.8931 22.5466 18.9277 22.4325 18.9275H22.4363Z" fill="white"/>
</svg>
