<svg width="22" height="21" viewBox="0 0 22 21" fill="none" xmlns="http://www.w3.org/2000/svg">
<path d="M16.1029 20.8622C15.2512 20.8625 14.4142 20.6403 13.6748 20.2175L13.5705 20.1587C8.76319 17.4088 4.74132 13.4721 1.88911 8.72481L1.34539 7.81861C0.788501 6.89215 0.557737 5.80595 0.689874 4.73311C0.822011 3.66026 1.30944 2.66252 2.07449 1.89888L3.1578 0.815571C4.06815 -0.0947737 5.5487 -0.0947737 6.45822 0.815571L8.84498 3.20233C9.20417 3.56323 9.43597 4.03135 9.50526 4.5358C9.57455 5.04025 9.47756 5.55354 9.22898 5.99792L8.33187 7.59102C8.31302 7.62454 8.30564 7.66331 8.31087 7.70141C8.3161 7.73951 8.33365 7.77485 8.36084 7.80205L13.6748 13.116C13.7024 13.1431 13.7381 13.1604 13.7764 13.1655C13.8148 13.1706 13.8537 13.1631 13.8875 13.1441L15.4781 12.2478L15.4789 12.247C15.9234 11.9987 16.4366 11.9019 16.941 11.9711C17.4453 12.0404 17.9135 12.2721 18.2745 12.631L20.6621 15.0194C21.5724 15.9298 21.5724 17.4103 20.6621 18.3198L19.5308 19.4503C19.0802 19.8994 18.5456 20.2552 17.9574 20.4975C17.3692 20.7397 16.739 20.8637 16.1029 20.8622ZM4.80801 1.78798C4.63422 1.78798 4.46042 1.85419 4.32801 1.98661L3.2447 3.06909C2.74117 3.57171 2.42035 4.2284 2.33336 4.93452C2.24637 5.64064 2.39822 6.35556 2.7647 6.96536L3.30842 7.87157C6.01393 12.3751 9.82891 16.1097 14.389 18.7187L14.4933 18.7775C15.7561 19.5 17.3451 19.2956 18.3597 18.2793L19.491 17.1488C19.5541 17.0858 19.6041 17.011 19.6383 16.9286C19.6724 16.8462 19.69 16.758 19.69 16.6688C19.69 16.5797 19.6724 16.4914 19.6383 16.409C19.6041 16.3267 19.5541 16.2518 19.491 16.1888L17.1035 13.8004C16.9984 13.6959 16.8621 13.6286 16.7153 13.6086C16.5685 13.5886 16.4191 13.617 16.2899 13.6895L14.6993 14.5858C14.3505 14.781 13.9476 14.8573 13.5516 14.8031C13.1556 14.7489 12.788 14.5672 12.5046 14.2854L7.19063 8.97143C6.90854 8.68831 6.72656 8.32085 6.67234 7.92487C6.61812 7.52889 6.69462 7.12604 6.89022 6.7775L7.78732 5.18523C7.8594 5.05599 7.88748 4.90681 7.86732 4.7602C7.84717 4.6136 7.77988 4.47753 7.6756 4.37254L5.28801 1.98661C5.22502 1.92353 5.15019 1.87351 5.06782 1.83942C4.98545 1.80534 4.89716 1.78786 4.80801 1.78798Z" fill="white"/>
</svg>
