<svg width="11" height="21" viewBox="0 0 11 21" fill="none" xmlns="http://www.w3.org/2000/svg">
<path fill-rule="evenodd" clip-rule="evenodd" d="M0.36652 20.2085C0.77152 20.5985 1.42652 20.5985 1.83052 20.2085L10.3935 11.9445C10.5852 11.7623 10.7378 11.5431 10.8421 11.3001C10.9464 11.0571 11.0002 10.7954 11.0002 10.531C11.0002 10.2666 10.9464 10.0049 10.8421 9.76191C10.7378 9.51892 10.5852 9.29967 10.3935 9.11751L1.76852 0.792509C1.57277 0.606456 1.31355 0.501882 1.0435 0.500025C0.773443 0.498168 0.512807 0.599166 0.31452 0.782509C0.216291 0.873049 0.137696 0.982791 0.0836001 1.10494C0.0295044 1.22709 0.00106027 1.35904 2.90802e-05 1.49262C-0.00100211 1.62621 0.0254016 1.75859 0.0776052 1.88155C0.129809 2.00452 0.206701 2.11546 0.30352 2.20751L8.19752 9.82451C8.29344 9.9156 8.36982 10.0253 8.42201 10.1468C8.47421 10.2683 8.50112 10.3992 8.50112 10.5315C8.50112 10.6638 8.47421 10.7947 8.42201 10.9162C8.36982 11.0378 8.29344 11.1474 8.19752 11.2385L0.36652 18.7955C0.27063 18.8865 0.194268 18.9961 0.142085 19.1175C0.089903 19.239 0.0629923 19.3698 0.0629923 19.502C0.0629923 19.6342 0.089903 19.765 0.142085 19.8865C0.194268 20.0079 0.27063 20.1175 0.36652 20.2085Z" fill="white"/>
</svg>
