<svg width="8" height="13" viewBox="0 0 8 13" fill="none" xmlns="http://www.w3.org/2000/svg">
<path fill-rule="evenodd" clip-rule="evenodd" d="M0.933861 12.1003C1.17587 12.3333 1.56728 12.3333 1.80869 12.1003L6.9256 7.16203C7.04014 7.05318 7.13135 6.92217 7.19367 6.77696C7.25599 6.63176 7.28813 6.4754 7.28813 6.31738C7.28813 6.15937 7.25599 6.003 7.19367 5.8578C7.13135 5.71259 7.04014 5.58158 6.9256 5.47273L1.77164 0.498034C1.65467 0.386856 1.49977 0.324367 1.3384 0.323257C1.17702 0.322147 1.02128 0.3825 0.902788 0.492058C0.844091 0.546162 0.797125 0.611739 0.7648 0.684729C0.732474 0.75772 0.715477 0.836569 0.714861 0.916395C0.714245 0.996221 0.730023 1.07532 0.761218 1.1488C0.792412 1.22229 0.83836 1.28858 0.896215 1.34358L5.61336 5.89521C5.67068 5.94964 5.71632 6.01516 5.74751 6.08779C5.7787 6.16042 5.79478 6.23864 5.79478 6.31768C5.79478 6.39672 5.7787 6.47494 5.74751 6.54757C5.71632 6.6202 5.67068 6.68573 5.61336 6.74016L0.933861 11.2559C0.876561 11.3103 0.830931 11.3758 0.799748 11.4484C0.768566 11.5209 0.752485 11.5991 0.752485 11.6781C0.752485 11.7571 0.768566 11.8353 0.799748 11.9078C0.830931 11.9804 0.876561 12.0459 0.933861 12.1003Z" fill="#BF713E"/>
</svg>
