<svg viewBox="0 0 22 22" fill="none" xmlns="http://www.w3.org/2000/svg">
<g clip-path="url(#clip0_767_16535)">
<path d="M15.4496 7.7369C15.3554 7.49306 15.2112 7.27164 15.0263 7.08691C14.8414 6.90218 14.6198 6.75823 14.3759 6.66434C14.04 6.53993 13.6852 6.47417 13.327 6.46994C12.7314 6.44282 12.5528 6.43604 11.044 6.43604C9.53518 6.43604 9.35661 6.44282 8.76099 6.46994C8.40244 6.47405 8.04728 6.5398 7.71103 6.66434C7.46718 6.75849 7.24576 6.90267 7.06103 7.0876C6.8763 7.27252 6.73235 7.49409 6.63846 7.73803C6.51405 8.07393 6.4483 8.4287 6.44406 8.78687C6.41694 9.38249 6.41016 9.56106 6.41016 11.0699C6.41016 12.5787 6.41694 12.7573 6.44406 13.3529C6.44817 13.7115 6.51392 14.0666 6.63846 14.4029C6.73261 14.6467 6.87679 14.8681 7.06172 15.0529C7.24664 15.2376 7.46821 15.3815 7.71216 15.4754C8.04805 15.5998 8.40282 15.6656 8.76099 15.6698C9.35661 15.697 9.53518 15.7037 11.044 15.7037C12.5528 15.7037 12.7314 15.697 13.327 15.6698C13.6856 15.6657 14.0407 15.6 14.377 15.4754C14.6208 15.3813 14.8423 15.2371 15.027 15.0522C15.2117 14.8673 15.3557 14.6457 15.4496 14.4017C15.574 14.0659 15.6397 13.7111 15.644 13.3529C15.6711 12.7573 15.6779 12.5787 15.6779 11.0699C15.6779 9.56106 15.6711 9.38249 15.644 8.78687C15.6399 8.42832 15.5741 8.07315 15.4496 7.7369ZM11.044 13.9723C10.47 13.9723 9.90883 13.802 9.43154 13.4831C8.95424 13.1642 8.58224 12.7109 8.36257 12.1806C8.14289 11.6502 8.08541 11.0667 8.1974 10.5037C8.30939 9.94066 8.58582 9.4235 8.99172 9.0176C9.39763 8.6117 9.91478 8.33527 10.4778 8.22328C11.0408 8.11129 11.6244 8.16877 12.1547 8.38844C12.685 8.60812 13.1383 8.98012 13.4572 9.45742C13.7762 9.93471 13.9464 10.4959 13.9464 11.0699C13.9464 11.8396 13.6406 12.5779 13.0963 13.1222C12.552 13.6665 11.8138 13.9723 11.044 13.9723ZM14.0605 8.73149C13.9264 8.73149 13.7953 8.69172 13.6838 8.6172C13.5723 8.54269 13.4854 8.43678 13.434 8.31287C13.3827 8.18896 13.3693 8.05261 13.3954 7.92107C13.4216 7.78952 13.4862 7.66869 13.581 7.57386C13.6759 7.47902 13.7967 7.41443 13.9282 7.38827C14.0598 7.3621 14.1961 7.37553 14.32 7.42686C14.444 7.47818 14.5499 7.5651 14.6244 7.67662C14.6989 7.78813 14.7387 7.91924 14.7387 8.05336C14.7387 8.23321 14.6672 8.4057 14.54 8.53287C14.4129 8.66004 14.2404 8.73149 14.0605 8.73149Z" fill="#BF713E"/>
<path d="M11.0403 12.9537C12.0808 12.9537 12.9244 12.1101 12.9244 11.0696C12.9244 10.0291 12.0808 9.18555 11.0403 9.18555C9.99977 9.18555 9.15625 10.0291 9.15625 11.0696C9.15625 12.1101 9.99977 12.9537 11.0403 12.9537Z" fill="#BF713E"/>
<path d="M11.0434 0.219971C8.89744 0.219971 6.7997 0.856312 5.01543 2.04853C3.23115 3.24074 1.84048 4.93528 1.01927 6.91785C0.19806 8.90043 -0.0168057 11.082 0.401844 13.1867C0.820494 15.2914 1.85386 17.2247 3.37126 18.7421C4.88866 20.2595 6.82194 21.2928 8.92663 21.7115C11.0313 22.1301 13.2129 21.9153 15.1955 21.0941C17.1781 20.2729 18.8726 18.8822 20.0648 17.0979C21.257 15.3136 21.8934 13.2159 21.8934 11.07C21.8934 8.19237 20.7502 5.43263 18.7155 3.39786C16.6807 1.36309 13.921 0.219971 11.0434 0.219971ZM16.6605 13.4005C16.6508 13.869 16.5618 14.3326 16.3972 14.7714C16.252 15.1467 16.0301 15.4876 15.7455 15.7721C15.461 16.0567 15.1201 16.2786 14.7448 16.4238C14.306 16.5884 13.8424 16.6774 13.3739 16.6871C12.7703 16.7142 12.5782 16.721 11.0434 16.721C9.50854 16.721 9.31641 16.7142 8.71287 16.6871C8.2443 16.6774 7.78075 16.5884 7.34193 16.4238C6.96661 16.2786 6.62576 16.0567 6.34122 15.7721C6.05667 15.4876 5.83471 15.1467 5.68957 14.7714C5.52496 14.3326 5.43592 13.869 5.42623 13.4005C5.3991 12.7969 5.39232 12.6048 5.39232 11.07C5.39232 9.53515 5.3991 9.34301 5.42623 8.73948C5.43592 8.2709 5.52496 7.80736 5.68957 7.36854C5.83471 6.99322 6.05667 6.65237 6.34122 6.36782C6.62576 6.08328 6.96661 5.86132 7.34193 5.71617C7.78075 5.55157 8.2443 5.46253 8.71287 5.45284C9.31641 5.42571 9.50854 5.41893 11.0434 5.41893C12.5782 5.41893 12.7703 5.42571 13.3739 5.45284C13.8424 5.46253 14.306 5.55157 14.7448 5.71617C15.1201 5.86132 15.461 6.08328 15.7455 6.36782C16.0301 6.65237 16.252 6.99322 16.3972 7.36854C16.5618 7.80736 16.6508 8.2709 16.6605 8.73948C16.6876 9.34301 16.6944 9.53515 16.6944 11.07C16.6944 12.6048 16.6876 12.7969 16.6605 13.4005Z" fill="#BF713E"/>
</g>
<defs>
<clipPath id="clip0_767_16535">
<rect width="21.7" height="21.7" fill="white" transform="translate(0.193359 0.219971)"/>
</clipPath>
</defs>
</svg>
