<svg width="38" height="38" viewBox="0 0 38 38" fill="none" xmlns="http://www.w3.org/2000/svg">
<path d="M19.683 20.5701C19.683 19.0001 20.4031 18.0701 21.7831 18.0701C23.0531 18.0701 23.663 18.9701 23.663 20.5701V26.4201H27.093V19.3701C27.093 16.3901 25.403 14.9401 23.043 14.9401C21.683 14.9201 20.403 15.6201 19.683 16.7801V15.2801H16.373V26.4201H19.683V20.5701Z" fill="#BF713E" stroke="#BF713E"/>
<path d="M14.1727 15.28H10.7227V26.42H14.1727V15.28Z" fill="#BF713E" stroke="#BF713E"/>
<path d="M12.4326 13.82C13.5726 13.82 14.4926 12.92 14.5026 11.78C14.5026 10.64 13.6026 9.72004 12.4626 9.71004C11.3226 9.70004 10.4026 10.61 10.3926 11.75C10.3926 11.75 10.3926 11.76 10.3926 11.77C10.3926 12.9 11.3026 13.82 12.4326 13.83" fill="#BF713E"/>
<path d="M12.4326 13.82C13.5726 13.82 14.4926 12.92 14.5026 11.78C14.5026 10.64 13.6026 9.72004 12.4626 9.71004C11.3226 9.70004 10.4026 10.61 10.3926 11.75C10.3926 11.75 10.3926 11.76 10.3926 11.77C10.3926 12.9 11.3026 13.82 12.4326 13.83" stroke="#BF713E"/>
</svg>
