<svg width="38" height="38" viewBox="0 0 38 38" fill="none" xmlns="http://www.w3.org/2000/svg">
<path d="M10.3125 25.0649C15.1325 28.1549 21.5325 26.7549 24.6225 21.9349C25.7825 20.1249 26.3525 18.0049 26.2525 15.8649C26.9625 15.3549 27.5825 14.7149 28.0725 13.9749C27.4125 14.2649 26.7025 14.4649 25.9825 14.5449C26.7425 14.0849 27.3125 13.3749 27.5825 12.5249C26.8725 12.9449 26.0825 13.2449 25.2725 13.4149C23.8925 11.9449 21.5825 11.8749 20.1225 13.2549C19.1725 14.1449 18.7725 15.4749 19.0625 16.7349C16.1325 16.5849 13.4025 15.2049 11.5525 12.9249C10.5825 14.5849 11.0825 16.7149 12.6825 17.7849C12.1025 17.7649 11.5425 17.6149 11.0325 17.3249C11.0125 19.0749 12.2425 20.5949 13.9525 20.9449C13.4125 21.0949 12.8525 21.1149 12.3125 21.0049C12.7925 22.4849 14.1525 23.5049 15.7125 23.5349C14.1825 24.7349 12.2425 25.2749 10.3225 25.0449" fill="#BF713E"/>
<path d="M10.3125 25.0649C15.1325 28.1549 21.5325 26.7549 24.6225 21.9349C25.7825 20.1249 26.3525 18.0049 26.2525 15.8649C26.9625 15.3549 27.5825 14.7149 28.0725 13.9749C27.4125 14.2649 26.7025 14.4649 25.9825 14.5449C26.7425 14.0849 27.3125 13.3749 27.5825 12.5249C26.8725 12.9449 26.0825 13.2449 25.2725 13.4149C23.8925 11.9449 21.5825 11.8749 20.1225 13.2549C19.1725 14.1449 18.7725 15.4749 19.0625 16.7349C16.1325 16.5849 13.4025 15.2049 11.5525 12.9249C10.5825 14.5849 11.0825 16.7149 12.6825 17.7849C12.1025 17.7649 11.5425 17.6149 11.0325 17.3249C11.0125 19.0749 12.2425 20.5949 13.9525 20.9449C13.4125 21.0949 12.8525 21.1149 12.3125 21.0049C12.7925 22.4849 14.1525 23.5049 15.7125 23.5349C14.1825 24.7349 12.2425 25.2749 10.3225 25.0449" stroke="#BF713E"/>
</svg>
