<svg width="19" height="11" viewBox="0 0 19 11" fill="none" xmlns="http://www.w3.org/2000/svg">
<path d="M18.0072 2.58598L18.0072 2.58599L18.0091 2.58401C18.2287 2.35301 18.3521 2.04709 18.3543 1.72839C18.3565 1.40979 18.2373 1.10229 18.0211 0.868309C17.9116 0.749564 17.7789 0.654548 17.6312 0.589139C17.4834 0.523692 17.3238 0.489279 17.1621 0.488032C17.0005 0.486784 16.8404 0.518728 16.6916 0.581886C16.5433 0.644857 16.4094 0.737521 16.2982 0.854169C16.2979 0.854514 16.2976 0.85486 16.2973 0.855206L9.84872 7.53823L9.84871 7.53822L9.84677 7.54027C9.80273 7.58664 9.74971 7.62357 9.69095 7.6488C9.63219 7.67404 9.56891 7.68705 9.50496 7.68705C9.44101 7.68705 9.37773 7.67404 9.31896 7.6488C9.2602 7.62357 9.20719 7.58664 9.16315 7.54027L9.16316 7.54026L9.16118 7.53822L2.76369 0.908786C2.76333 0.908405 2.76297 0.908025 2.76261 0.907644C2.65266 0.792096 2.52041 0.700053 2.37385 0.637089C2.22681 0.573918 2.06845 0.54134 1.90842 0.54134C1.74838 0.54134 1.59002 0.573917 1.44298 0.637089C1.29638 0.700074 1.16408 0.792158 1.05411 0.907763C0.592718 1.38781 0.59255 2.15917 1.0552 2.63846C1.05521 2.63848 1.05522 2.63849 1.05523 2.6385L8.05156 9.88795C8.05191 9.88832 8.05225 9.88868 8.0526 9.88904C8.23975 10.0857 8.46488 10.2423 8.71435 10.3493L8.85408 10.0238L8.71435 10.3494C8.96427 10.4566 9.23341 10.5119 9.50538 10.5119C9.77735 10.5119 10.0465 10.4566 10.2964 10.3494L10.1567 10.0238L10.2964 10.3493C10.5459 10.2423 10.7711 10.0856 10.9582 9.88897C10.9586 9.88863 10.9589 9.88829 10.9592 9.88795L18.0072 2.58598Z" fill="#BF713E" stroke="#BF713E" stroke-width="0.708577"/>
</svg>
