<svg width="39" height="38" viewBox="0 0 39 38" fill="none" xmlns="http://www.w3.org/2000/svg">
<path d="M31.001 16.6797C31.0505 15.2484 30.7374 13.8277 30.091 12.5497C29.6524 12.0253 29.0437 11.6714 28.371 11.5497C25.5885 11.2972 22.7945 11.1938 20.001 11.2397C17.2176 11.1917 14.4337 11.2918 11.661 11.5397C11.1128 11.6394 10.6055 11.8966 10.201 12.2797C9.301 13.1097 9.201 14.5297 9.101 15.7297C8.95592 17.8873 8.95592 20.0521 9.101 22.2097C9.12993 22.8851 9.2305 23.5555 9.401 24.2097C9.52158 24.7148 9.76553 25.1821 10.111 25.5697C10.5183 25.9732 11.0374 26.2449 11.601 26.3497C13.7569 26.6158 15.9292 26.7261 18.101 26.6797C21.601 26.7297 24.671 26.6797 28.301 26.3997C28.8785 26.3014 29.4122 26.0293 29.831 25.6197C30.111 25.3396 30.3201 24.9968 30.441 24.6197C30.7986 23.5223 30.9743 22.3738 30.961 21.2197C31.001 20.6597 31.001 17.2797 31.001 16.6797ZM17.741 21.8197V15.6297L23.661 18.7397C22.001 19.6597 19.811 20.6997 17.741 21.8197Z" fill="#BF713E"/>
</svg>
